<mxfile host="Electron" modified="2024-04-26T11:46:49.395Z" agent="Mozilla/5.0 (Windows NT 10.0; Win64; x64) AppleWebKit/537.36 (KHTML, like Gecko) draw.io/22.0.3 Chrome/114.0.5735.289 Electron/25.8.4 Safari/537.36" etag="aydHe9_BmmJRhu9m43Lm" version="22.0.3" type="device">
  <diagram name="Страница — 1" id="xm2sa-TDXcXvonqyPVgF">
    <mxGraphModel dx="1418" dy="820" grid="1" gridSize="10" guides="1" tooltips="1" connect="1" arrows="1" fold="1" page="1" pageScale="1" pageWidth="827" pageHeight="1169" math="0" shadow="0">
      <root>
        <mxCell id="0" />
        <mxCell id="1" parent="0" />
        <mxCell id="A_TaPDTyiOu-EYbi5RO9-3" style="edgeStyle=orthogonalEdgeStyle;rounded=0;orthogonalLoop=1;jettySize=auto;html=1;exitX=1;exitY=0.5;exitDx=0;exitDy=0;" edge="1" parent="1" source="A_TaPDTyiOu-EYbi5RO9-1" target="A_TaPDTyiOu-EYbi5RO9-2">
          <mxGeometry relative="1" as="geometry" />
        </mxCell>
        <mxCell id="A_TaPDTyiOu-EYbi5RO9-1" value="Вывод стартового сообщения" style="rounded=0;whiteSpace=wrap;html=1;" vertex="1" parent="1">
          <mxGeometry x="120" y="360" width="120" height="60" as="geometry" />
        </mxCell>
        <mxCell id="A_TaPDTyiOu-EYbi5RO9-5" style="edgeStyle=orthogonalEdgeStyle;rounded=0;orthogonalLoop=1;jettySize=auto;html=1;exitX=1;exitY=0.5;exitDx=0;exitDy=0;entryX=0;entryY=0.5;entryDx=0;entryDy=0;" edge="1" parent="1" source="A_TaPDTyiOu-EYbi5RO9-2" target="A_TaPDTyiOu-EYbi5RO9-4">
          <mxGeometry relative="1" as="geometry" />
        </mxCell>
        <mxCell id="A_TaPDTyiOu-EYbi5RO9-2" value="Ввод текста на естественном языке" style="whiteSpace=wrap;html=1;" vertex="1" parent="1">
          <mxGeometry x="310" y="360" width="120" height="60" as="geometry" />
        </mxCell>
        <mxCell id="A_TaPDTyiOu-EYbi5RO9-7" style="edgeStyle=orthogonalEdgeStyle;rounded=0;orthogonalLoop=1;jettySize=auto;html=1;entryX=0;entryY=0.5;entryDx=0;entryDy=0;" edge="1" parent="1" source="A_TaPDTyiOu-EYbi5RO9-4" target="A_TaPDTyiOu-EYbi5RO9-6">
          <mxGeometry relative="1" as="geometry" />
        </mxCell>
        <mxCell id="A_TaPDTyiOu-EYbi5RO9-4" value="Объединение введённого текста с пре промптом" style="whiteSpace=wrap;html=1;" vertex="1" parent="1">
          <mxGeometry x="520" y="360" width="120" height="60" as="geometry" />
        </mxCell>
        <mxCell id="A_TaPDTyiOu-EYbi5RO9-10" value="" style="edgeStyle=orthogonalEdgeStyle;rounded=0;orthogonalLoop=1;jettySize=auto;html=1;" edge="1" parent="1" source="A_TaPDTyiOu-EYbi5RO9-6" target="A_TaPDTyiOu-EYbi5RO9-9">
          <mxGeometry relative="1" as="geometry" />
        </mxCell>
        <mxCell id="A_TaPDTyiOu-EYbi5RO9-12" value="" style="edgeStyle=orthogonalEdgeStyle;rounded=0;orthogonalLoop=1;jettySize=auto;html=1;" edge="1" parent="1" source="A_TaPDTyiOu-EYbi5RO9-6" target="A_TaPDTyiOu-EYbi5RO9-11">
          <mxGeometry relative="1" as="geometry" />
        </mxCell>
        <mxCell id="A_TaPDTyiOu-EYbi5RO9-6" value="Обработка зпроса" style="whiteSpace=wrap;html=1;" vertex="1" parent="1">
          <mxGeometry x="707" y="360" width="120" height="60" as="geometry" />
        </mxCell>
        <mxCell id="A_TaPDTyiOu-EYbi5RO9-13" style="edgeStyle=orthogonalEdgeStyle;rounded=0;orthogonalLoop=1;jettySize=auto;html=1;exitX=0;exitY=0.5;exitDx=0;exitDy=0;entryX=0.5;entryY=1;entryDx=0;entryDy=0;" edge="1" parent="1" source="A_TaPDTyiOu-EYbi5RO9-9" target="A_TaPDTyiOu-EYbi5RO9-2">
          <mxGeometry relative="1" as="geometry" />
        </mxCell>
        <mxCell id="A_TaPDTyiOu-EYbi5RO9-9" value="Вывод сообщения об ошибке" style="whiteSpace=wrap;html=1;" vertex="1" parent="1">
          <mxGeometry x="707" y="470" width="120" height="60" as="geometry" />
        </mxCell>
        <mxCell id="A_TaPDTyiOu-EYbi5RO9-14" style="edgeStyle=orthogonalEdgeStyle;rounded=0;orthogonalLoop=1;jettySize=auto;html=1;exitX=0;exitY=0.5;exitDx=0;exitDy=0;" edge="1" parent="1" source="A_TaPDTyiOu-EYbi5RO9-11" target="A_TaPDTyiOu-EYbi5RO9-2">
          <mxGeometry relative="1" as="geometry" />
        </mxCell>
        <mxCell id="A_TaPDTyiOu-EYbi5RO9-11" value="Вывод сгенерированного ответа на естественном языке" style="whiteSpace=wrap;html=1;" vertex="1" parent="1">
          <mxGeometry x="707" y="250" width="120" height="60" as="geometry" />
        </mxCell>
      </root>
    </mxGraphModel>
  </diagram>
</mxfile>
